<?xml version="1.0" standalone="no"?>
<!DOCTYPE svg PUBLIC "-//W3C//DTD SVG 20010904//EN"
 "http://www.w3.org/TR/2001/REC-SVG-20010904/DTD/svg10.dtd">
<svg version="1.0" xmlns="http://www.w3.org/2000/svg"
 width="501.000000pt" height="503.000000pt" viewBox="0 0 501.000000 503.000000"
 preserveAspectRatio="xMidYMid meet">

<g transform="translate(0.000000,503.000000) scale(0.100000,-0.100000)"
fill="#000000" stroke="none">
<path d="M759 4562 c-77 -79 -189 -201 -322 -347 -10 -11 -27 -32 -38 -46
l-19 -27 38 -32 c20 -17 64 -57 97 -88 33 -32 116 -109 185 -172 69 -63 152
-140 185 -171 33 -31 85 -79 115 -105 46 -41 109 -100 235 -219 12 -11 44 -40
71 -64 27 -24 85 -78 129 -120 44 -42 103 -96 130 -120 28 -24 91 -83 140
-130 50 -47 110 -104 135 -125 25 -22 86 -78 136 -125 49 -47 112 -106 140
-130 27 -24 90 -82 140 -130 50 -47 108 -101 129 -119 22 -18 87 -77 145 -132
58 -54 119 -111 135 -126 30 -27 150 -137 395 -364 74 -68 160 -147 190 -175
30 -27 86 -79 125 -116 38 -36 97 -90 130 -120 33 -29 96 -88 140 -130 44 -41
102 -95 129 -120 52 -46 138 -126 246 -227 36 -34 73 -64 83 -68 22 -7 126 42
212 100 121 81 199 179 227 284 30 113 29 327 -1 477 -6 28 -13 64 -17 82 -6
33 -60 88 -254 263 -46 41 -88 80 -94 85 -26 24 -355 323 -396 360 -25 22 -81
74 -125 115 -44 42 -105 98 -135 125 -30 26 -89 80 -130 119 -42 39 -96 89
-120 110 -25 21 -72 64 -105 95 -33 31 -107 99 -165 151 -58 52 -112 102 -120
110 -8 8 -38 35 -65 60 -28 25 -100 90 -160 146 -94 85 -174 157 -221 199 -6
6 -45 42 -85 80 -41 39 -96 90 -124 114 -27 24 -81 74 -120 110 -38 37 -90 84
-115 105 -25 21 -79 71 -120 110 -41 39 -113 106 -160 148 -47 42 -103 93
-125 113 -60 56 -79 66 -142 76 -170 25 -251 46 -373 98 -124 53 -130 56 -130
63 0 5 -6 8 -12 8 -7 0 -24 9 -38 20 -14 11 -28 20 -31 20 -3 0 -48 -44 -100
-98z m832 -386 c30 -26 92 -85 139 -130 47 -44 133 -125 192 -179 101 -93 179
-187 206 -250 26 -61 7 -138 -47 -184 -21 -19 -38 -23 -88 -23 -34 0 -65 5
-68 10 -3 6 -10 10 -15 10 -4 0 0 -18 11 -40 24 -49 24 -134 0 -175 -9 -16
-37 -40 -61 -53 -99 -52 -229 0 -397 158 -38 36 -149 139 -246 229 -97 91
-177 168 -177 171 0 15 98 110 114 110 9 0 26 -6 37 -12 19 -12 30 -3 135 105
134 138 147 159 130 202 -12 28 -10 33 23 72 20 23 41 38 47 35 7 -4 36 -29
65 -56z m849 -880 c112 -24 232 -97 326 -199 60 -66 134 -192 134 -229 0 -12
5 -38 12 -59 9 -31 8 -52 -2 -97 -32 -138 -99 -213 -243 -271 -33 -13 -146
-15 -179 -2 -13 5 -41 14 -63 21 -94 30 -277 179 -321 262 -48 91 -57 111 -67
146 -12 43 -13 141 -2 192 9 40 61 125 96 157 52 46 155 90 219 92 14 1 54 -5
90 -13z m968 -818 l103 -98 -38 -50 c-37 -50 -39 -50 -82 -45 -40 5 -46 2 -80
-33 -101 -106 -170 -181 -194 -213 -27 -36 -36 -79 -17 -79 22 0 8 -36 -27
-72 -20 -21 -40 -38 -44 -38 -3 0 -17 10 -31 23 -13 12 -51 46 -84 76 -32 29
-92 85 -131 123 -80 77 -81 78 -20 136 30 29 37 32 59 22 36 -17 70 7 188 134
119 128 126 139 106 167 -19 28 -11 45 42 97 l43 43 52 -47 c29 -27 98 -92
155 -146z m401 -378 c36 -19 85 -58 116 -92 60 -65 145 -190 145 -214 0 -13 8
-14 41 -9 37 6 44 4 75 -26 19 -18 34 -38 34 -44 0 -14 -129 -147 -139 -143
-5 2 -30 23 -56 46 -37 35 -50 55 -61 99 -28 109 -127 212 -163 169 -9 -11 -7
-22 10 -52 11 -22 30 -48 40 -60 10 -11 19 -23 19 -27 0 -4 16 -29 35 -56 19
-26 35 -56 35 -65 0 -9 4 -16 8 -16 15 0 36 -95 35 -160 0 -100 -32 -146 -123
-177 -61 -22 -148 -14 -212 18 -10 5 -23 9 -29 9 -30 0 -134 87 -184 155 -16
22 -32 42 -35 45 -3 3 -18 31 -34 63 -16 31 -31 57 -35 58 -3 0 -18 2 -34 3
-17 1 -42 17 -66 41 l-40 40 83 88 c45 48 87 87 92 87 5 -1 30 -20 55 -43 46
-41 47 -43 42 -93 -3 -32 -1 -54 6 -58 6 -4 11 -15 11 -25 0 -10 18 -39 40
-64 41 -47 82 -64 121 -52 18 6 20 12 15 41 -4 18 -23 62 -43 96 -67 118 -93
170 -93 188 0 11 -4 22 -10 25 -5 3 -10 35 -10 71 0 75 14 102 75 146 37 28
45 30 106 25 49 -3 81 -12 128 -37z"/>
<path d="M1671 3782 l-33 -36 48 -43 c73 -66 125 -69 132 -10 3 20 -8 39 -44
77 -26 27 -52 50 -58 49 -6 0 -26 -17 -45 -37z"/>
<path d="M1497 3595 l-37 -43 49 -45 c77 -68 141 -70 141 -4 0 26 -11 43 -53
85 -29 29 -55 52 -57 51 -3 0 -22 -20 -43 -44z"/>
<path d="M2486 3016 c-93 -58 -176 -164 -176 -226 0 -32 6 -43 33 -64 19 -15
44 -26 56 -26 41 0 134 77 197 161 47 64 47 106 -1 148 -42 37 -58 38 -109 7z"/>
<path d="M2480 4096 c0 -112 1 -115 26 -135 27 -21 102 -29 139 -15 32 13 45
59 45 164 0 96 -1 101 -20 98 -19 -3 -21 -11 -23 -104 -1 -68 -6 -106 -16
-117 -17 -21 -60 -22 -89 -1 -20 14 -22 23 -22 120 0 97 -1 104 -20 104 -19 0
-20 -7 -20 -114z"/>
<path d="M2762 4078 c3 -117 5 -133 21 -136 14 -3 17 4 17 42 0 48 9 59 50 62
14 1 34 2 46 3 36 2 64 38 64 81 0 63 -26 80 -122 80 l-79 0 3 -132z m146 80
c36 -36 -6 -82 -69 -76 -32 3 -34 5 -37 46 l-3 42 48 0 c27 0 54 -5 61 -12z"/>
<path d="M3024 4194 c3 -9 6 -70 6 -136 0 -108 2 -119 18 -116 13 3 17 13 17
47 0 49 12 59 75 61 54 1 85 30 85 80 0 62 -28 79 -129 80 -67 0 -77 -2 -72
-16z m154 -59 c5 -36 -19 -55 -69 -55 -32 0 -37 3 -41 28 -8 56 -1 63 55 60
49 -3 52 -5 55 -33z"/>
<path d="M3305 4190 c-40 -44 -5 -114 64 -126 53 -10 71 -22 71 -47 0 -32 -18
-47 -57 -47 -24 0 -37 7 -49 25 -18 28 -54 34 -54 10 0 -23 46 -65 72 -66 79
-4 122 15 133 58 12 50 -11 80 -76 99 -33 10 -66 26 -75 35 -13 15 -13 18 1
33 22 22 68 20 90 -4 10 -11 24 -20 31 -20 24 0 26 22 3 46 -30 32 -126 35
-154 4z"/>
<path d="M3620 4183 c-6 -15 -15 -36 -20 -45 -6 -10 -10 -25 -10 -33 0 -8 -4
-23 -9 -33 -5 -9 -14 -30 -21 -47 -7 -16 -16 -38 -21 -47 -14 -28 -11 -38 12
-38 13 0 23 10 30 30 11 29 13 30 74 30 61 0 64 -1 77 -30 13 -30 48 -42 48
-16 0 7 -22 67 -49 132 -43 106 -51 119 -75 122 -21 3 -28 -2 -36 -25z m63
-70 c3 -16 8 -38 12 -50 7 -22 5 -23 -40 -23 -41 0 -46 2 -40 18 4 9 10 26 13
37 6 25 32 56 42 50 4 -3 10 -17 13 -32z"/>
<path d="M3840 4076 l0 -136 91 0 c78 0 90 2 87 16 -2 13 -16 17 -68 18 l-65
1 -2 115 c-1 109 -2 115 -22 118 -20 3 -21 0 -21 -132z"/>
<path d="M4132 4148 c-13 -35 -27 -72 -32 -83 -4 -11 -17 -44 -28 -72 l-21
-53 24 0 c17 0 26 8 34 30 10 31 11 31 73 28 57 -3 64 -5 76 -30 8 -17 21 -28
33 -28 23 0 21 15 -12 87 -10 24 -19 49 -19 56 0 7 -4 17 -9 23 -5 5 -16 29
-24 54 -13 38 -19 45 -43 48 -27 3 -31 -1 -52 -60z m68 -28 c0 -10 5 -22 10
-25 6 -3 10 -17 10 -31 0 -21 -4 -24 -40 -24 -22 0 -40 4 -40 9 0 14 22 75 33
88 12 16 27 7 27 -17z"/>
<path d="M814 3440 c45 -156 56 -243 55 -413 0 -151 -25 -323 -77 -542 -6 -22
-15 -60 -20 -85 -12 -50 -22 -88 -47 -170 -10 -30 -19 -70 -22 -88 -3 -18 -9
-35 -14 -38 -5 -3 -9 -18 -9 -34 0 -16 -5 -32 -10 -35 -5 -3 -10 -16 -10 -27
0 -12 -4 -35 -9 -52 -30 -95 -55 -186 -63 -221 -5 -22 -13 -59 -19 -82 -49
-223 -70 -385 -62 -473 7 -68 41 -158 86 -225 59 -89 180 -202 246 -232 31
-14 64 -29 73 -34 10 -5 26 -9 36 -9 10 0 22 -3 26 -7 7 -7 66 -25 146 -43 87
-20 262 -42 480 -60 450 -38 635 -77 828 -177 46 -24 89 -43 97 -43 12 0 130
51 187 81 10 5 27 9 37 9 11 0 23 4 26 10 3 5 16 10 27 10 12 0 35 4 52 9 140
43 279 66 616 101 258 28 430 54 430 67 0 4 -119 116 -190 178 -30 26 -89 80
-131 119 -41 39 -95 89 -120 110 -60 54 -142 128 -214 195 -33 31 -134 124
-225 206 -91 82 -199 181 -240 220 -41 38 -118 108 -169 155 -52 47 -104 94
-116 105 -37 35 -238 219 -285 260 -24 22 -74 67 -110 101 -36 33 -87 81 -115
106 -174 157 -334 303 -425 387 -58 54 -132 121 -165 151 -33 29 -89 81 -125
114 -36 34 -90 83 -120 110 -30 27 -100 90 -155 141 -183 169 -189 174 -181
145z m161 -1485 c76 -82 157 -170 179 -195 222 -244 290 -318 427 -463 l64
-69 107 119 c59 65 115 127 125 139 10 12 48 54 84 95 36 41 135 152 218 247
84 94 156 172 160 172 17 0 53 -49 45 -62 -31 -53 -175 -236 -467 -592 -176
-215 -178 -218 -161 -239 38 -47 111 -108 141 -119 28 -10 32 -16 27 -37 -4
-22 -4 -23 6 -8 6 10 23 17 40 17 26 0 30 -4 30 -29 0 -17 5 -33 10 -36 6 -3
10 2 10 12 0 26 19 43 47 43 20 0 23 -5 23 -37 0 -21 5 -45 11 -53 8 -11 9 -1
5 37 -5 51 -4 53 27 68 28 14 33 14 43 1 12 -17 24 -11 24 13 1 18 92 62 108
52 21 -13 110 -135 106 -146 -7 -17 -116 -86 -132 -83 -16 4 -41 48 -67 123
-5 14 -9 16 -12 7 -3 -8 0 -25 6 -38 14 -31 28 -64 34 -86 7 -21 -28 -45 -74
-50 -29 -2 -34 0 -37 20 -5 33 -22 27 -22 -9 l0 -30 -79 2 c-57 2 -93 9 -130
26 -28 13 -51 27 -51 31 0 4 9 18 20 32 11 14 20 30 20 36 0 6 7 17 15 24 17
14 20 30 5 30 -5 0 -17 -15 -26 -32 -9 -18 -20 -35 -24 -38 -4 -3 -10 -14 -12
-25 -4 -17 -21 -4 -100 78 -51 53 -97 97 -101 97 -8 0 -54 -49 -92 -98 -11
-14 -32 -39 -47 -56 l-28 -31 -19 25 c-11 14 -26 36 -33 50 -7 14 -18 32 -25
41 -11 13 -2 27 67 97 44 45 80 85 80 89 0 7 -66 87 -174 213 -11 14 -43 52
-71 85 -27 33 -56 67 -64 75 -8 8 -58 67 -110 130 -52 63 -136 162 -186 220
-137 160 -185 218 -185 224 0 13 46 47 61 44 9 -2 78 -70 154 -153z m343 -32
l2 -163 -40 0 -40 0 0 111 c0 104 -1 110 -19 104 -13 -4 -24 1 -35 16 -14 21
-13 24 27 60 32 29 49 38 72 36 l30 -2 3 -162z m249 130 c26 -34 28 -44 28
-124 0 -83 -2 -89 -31 -126 -34 -41 -70 -53 -137 -45 -34 4 -37 7 -37 38 l0
34 49 -2 c46 -2 81 12 81 33 0 5 -19 9 -42 9 -99 1 -144 109 -77 185 28 32 36
35 85 35 49 0 55 -2 81 -37z m259 12 c6 -24 0 -41 -42 -129 -8 -16 -14 -33
-14 -37 0 -4 -14 -37 -30 -73 -30 -65 -31 -66 -70 -66 -22 0 -40 4 -40 8 0 5
14 36 30 70 17 34 30 65 30 67 0 3 11 28 25 57 14 28 25 53 25 55 0 2 -29 3
-65 3 -60 0 -65 2 -71 24 -3 14 -3 30 1 35 4 7 48 11 110 11 103 0 105 0 111
-25z m242 -13 c2 -19 -5 -52 -16 -75 -10 -23 -36 -81 -57 -129 l-39 -88 -39 0
c-49 0 -50 -5 42 189 32 68 30 71 -44 71 -65 0 -65 0 -65 28 0 16 3 32 7 36 4
4 52 5 107 4 l101 -3 3 -33z m-347 -428 c61 -63 41 -150 -42 -184 -77 -32
-170 59 -144 141 14 44 63 79 109 79 35 0 48 -6 77 -36z m-662 -625 l33 -31
-38 -76 c-21 -42 -42 -80 -47 -83 -6 -4 -29 5 -53 19 -55 33 -57 57 -11 121
19 25 37 54 40 64 9 25 38 20 76 -14z m94 -51 c16 -8 27 -21 27 -33 -1 -40
-21 -160 -29 -168 -7 -7 -32 0 -88 26 -13 6 -23 17 -23 25 0 13 21 66 41 104
5 10 9 24 9 32 0 12 12 23 31 25 3 1 17 -5 32 -11z m136 -95 c7 -37 15 -78 18
-90 5 -22 2 -23 -62 -23 l-67 0 6 35 c3 19 8 52 11 73 11 69 15 81 33 85 34 7
48 -11 61 -80z m98 70 c4 -10 19 -39 35 -64 15 -25 28 -51 28 -57 0 -14 -44
-37 -85 -46 -30 -6 -31 -5 -43 47 -13 57 -16 120 -5 130 14 15 64 7 70 -10z"/>
<path d="M1987 833 c-11 -10 -8 -53 3 -53 6 0 10 14 10 30 0 31 -2 35 -13 23z"/>
<path d="M1450 2000 c-9 -17 -8 -26 5 -46 18 -28 24 -29 49 -11 12 9 17 23 14
42 -2 24 -8 31 -30 33 -19 2 -30 -3 -38 -18z"/>
</g>
</svg>
